<svg xmlns="http://www.w3.org/2000/svg" xmlns:xlink="http://www.w3.org/1999/xlink" width="1920" height="1080" viewBox="0 0 1920 1080"><defs><style>.a{fill:url(#a);}.b{fill:url(#b);}.c{clip-path:url(#c);}.d{opacity:0.201;}.e,.h{opacity:0.7;}.e{fill:url(#d);}.f,.i,.l{fill:none;}.f{stroke:#a3a0fb;}.f,.g,.i,.j{stroke-width:2px;}.g,.j{fill:#fff;}.g{stroke:#a4a1fb;}.h{fill:url(#f);}.i{stroke:#54d8ff;}.j{stroke:#55d8fe;}.k{stroke:none;}</style><linearGradient id="a" y1="1" x2="1" gradientUnits="objectBoundingBox"><stop offset="0" stop-color="#5c6ccd"/><stop offset="1" stop-color="#5753b5"/></linearGradient><linearGradient id="b" x1="0.897" y1="0.14" x2="0.206" y2="0.877" gradientUnits="objectBoundingBox"><stop offset="0" stop-color="#242348"/><stop offset="1" stop-color="#5a55aa"/></linearGradient><clipPath id="c"><rect class="a" width="1920" height="1080"/></clipPath><linearGradient id="d" x1="0.5" x2="0.5" y2="1" gradientUnits="objectBoundingBox"><stop offset="0" stop-color="#a7a7ff"/><stop offset="1" stop-color="#fff" stop-opacity="0"/></linearGradient><linearGradient id="f" x1="0.5" x2="0.5" y2="1" gradientUnits="objectBoundingBox"><stop offset="0" stop-color="#54d8ff"/><stop offset="1" stop-color="#fff" stop-opacity="0"/></linearGradient></defs><rect class="b" width="1920" height="1080"/><g class="c"><g class="d" transform="translate(-1315.805 319.65)"><path class="e" d="M330,822.827V577.385s740.41,160.989,1332,171.1c639.694-9.8,750.464-78.7,1248.739-171.1,425.8-77.019,850.431-98.157,1258-92.715s760.831,88.642,1242.268,97.169C6260.32,547.487,6693.64,373.814,6751.021,301.277V914.109L330,914.382Z" transform="translate(-330 -298.414)"/><path class="f" d="M313,524.853s735.629,164.827,1317.271,168.375,805.05-85.057,1250.55-168.156,869.017-97.281,1258.929-94.488,768.961,89.875,1248.046,94.5S6641.942,374.554,6728.128,245.24" transform="translate(-307.107 -245.24)"/><g class="g" transform="translate(2545.488 267.186)"><circle class="k" cx="13.792" cy="13.792" r="13.792"/><circle class="l" cx="13.792" cy="13.792" r="12.792"/></g><g class="g" transform="translate(1694.713 419.878)"><circle class="k" cx="13.792" cy="13.792" r="13.792"/><circle class="l" cx="13.792" cy="13.792" r="12.792"/></g></g><g class="d" transform="translate(-1620.605 581.775)"><path class="e" d="M330,822.827V577.385s740.41,160.989,1332,171.1c639.694-9.8,750.464-78.7,1248.739-171.1,425.8-77.019,850.431-98.157,1258-92.715s760.831,88.642,1242.268,97.169C6260.32,547.487,6693.64,373.814,6751.021,301.277V914.109L330,914.382Z" transform="translate(-330 -298.414)"/><path class="f" d="M313,524.853s735.629,164.827,1317.271,168.375,805.05-85.057,1250.55-168.156,869.017-97.281,1258.929-94.488,768.961,89.875,1248.046,94.5S6641.942,374.554,6728.128,245.24" transform="translate(-307.107 -245.24)"/><g class="g" transform="translate(2545.488 267.186)"><circle class="k" cx="13.792" cy="13.792" r="13.792"/><circle class="l" cx="13.792" cy="13.792" r="12.792"/></g></g><g class="d" transform="translate(-1690.318 344.74)"><path class="h" d="M330,729.221v-374.8S1052.656,727.05,1646.285,741.074c662.344-3.158,667.773-193.446,1249.8-297.616,487.257-81.794,859.06,141.325,1266.631,146.767s688.854-152.916,1244.9-163.918C6128.053,442.874,6706.145,654.447,6751,665.823V820.5l-6421,.272Z" transform="translate(-326.02 -354.422)"/><path class="i" d="M312.953,279.164s745.147,379.5,1327.51,383.044,781.509-223.6,1249.1-300.177S3762.8,508.1,4153.191,510.9s764.173-167.271,1243.851-162.649,1028.1,133.267,1331.3,234.746" transform="translate(-312.953 -275.989)"/><g class="j" transform="translate(5040.722 57.949)"><circle class="k" cx="13.792" cy="13.792" r="13.792"/><circle class="l" cx="13.792" cy="13.792" r="12.792"/></g><g class="j" transform="translate(2738.737 57.019)"><circle class="k" cx="13.792" cy="13.792" r="13.792"/><circle class="l" cx="13.792" cy="13.792" r="12.792"/></g></g><g class="d" transform="translate(-2416.855 468.869)"><path class="h" d="M330,729.221v-374.8S1052.656,727.05,1646.285,741.074c662.344-3.158,667.773-193.446,1249.8-297.616,487.257-81.794,859.06,141.325,1266.631,146.767s688.854-152.916,1244.9-163.918C6128.053,442.874,6706.145,654.447,6751,665.823V820.5l-6421,.272Z" transform="translate(-328.42 -354.422)"/><path class="i" d="M312.953,279.164s745.147,379.5,1327.51,383.044,781.509-223.6,1249.1-300.177S3762.8,508.1,4153.191,510.9s764.173-167.271,1243.851-162.649,1028.1,133.267,1331.3,234.746" transform="translate(-312.953 -275.989)"/><g class="j" transform="translate(4048.825 205.118)"><circle class="k" cx="13.792" cy="13.792" r="13.792"/><circle class="l" cx="13.792" cy="13.792" r="12.792"/></g><g class="j" transform="translate(2541.129 71.755)"><circle class="k" cx="13.792" cy="13.792" r="13.792"/><circle class="l" cx="13.792" cy="13.792" r="12.792"/></g></g></g></svg>