<svg xmlns="http://www.w3.org/2000/svg" width="47" height="47" viewBox="0 0 47 47"><defs><style>.a{fill:#6a99d0;}.b{fill:#fefefe;}</style></defs><g transform="translate(-885 -196)"><ellipse class="a" cx="23.5" cy="23.5" rx="23.5" ry="23.5" transform="translate(885 196)"/><path class="b" d="M120.113,91.92h4.171a.591.591,0,0,1,.6.6v12a.591.591,0,0,1-.6.6h-4.171a.606.606,0,0,1-.613-.6v-12A.606.606,0,0,1,120.113,91.92Zm7.22,11.514h12.74a1.7,1.7,0,0,0,1.7-1.7h0a1.736,1.736,0,0,0-1.086-1.577H141a1.868,1.868,0,0,0,1.63-1.875h0A1.642,1.642,0,0,0,141,96.634h-.315v-.14h.911a1.653,1.653,0,0,0,1.647-1.63h0a1.657,1.657,0,0,0-1.647-1.648h-.911v-.14h.911a1.653,1.653,0,0,0,1.647-1.63h0A1.657,1.657,0,0,0,141.6,89.8h-7.132c-.053-.018-.053-.07,0-.175q.131-.263.578-1.051a7.328,7.328,0,0,0,.859-2.086,7.455,7.455,0,0,0,.018-2.786,3.466,3.466,0,0,0-.806-1.823,1.87,1.87,0,0,0-1.279-.578,1.8,1.8,0,0,0-1.262.4,2.306,2.306,0,0,0-.6,1.4c-.07.631-.018,1.4-.035,1.875a1.009,1.009,0,0,1-.421.894c-.316.228-.824.526-1.3.929a10.218,10.218,0,0,0-1.367,1.56c-.736.946-2.576,3.33-2.576,4.346v9.673A1.055,1.055,0,0,0,127.333,103.434Z" transform="translate(777.119 125.775)"/></g></svg>