<svg xmlns="http://www.w3.org/2000/svg" width="47" height="47" viewBox="0 0 47 47"><defs><style>.a{fill:#949494;}.b{fill:#fff;}</style></defs><g transform="translate(-609 -196)"><g transform="translate(-672 34)"><circle class="a" cx="23.5" cy="23.5" r="23.5" transform="translate(1281 162)"/></g><g transform="translate(517.65 -122.129)"><path class="b" d="M115.282,351.8c1.864,0,3.728,0,5.592,0a1.074,1.074,0,0,0,1.143-1.123c.006-.4.007-.809,0-1.213a6.17,6.17,0,0,0-4.123-5.6,8.685,8.685,0,0,0-3.423-.321,5.967,5.967,0,0,0-5.509,3.933,7.544,7.544,0,0,0-.393,3.086,1.114,1.114,0,0,0,1.243,1.239Zm3.683-8.446a1.432,1.432,0,0,0,.133.09,7.564,7.564,0,0,1,3.337,3.366.327.327,0,0,0,.354.185c1,0,1.993,0,2.989,0,1.134,0,2.269,0,3.4,0a.916.916,0,0,0,.99-.974c0-.266.01-.533,0-.8a5.343,5.343,0,0,0-3.073-4.828,6.219,6.219,0,0,0-3.111-.54,5.427,5.427,0,0,0-3.429,1.26A5.236,5.236,0,0,0,118.965,343.351Zm-7.431-.067a5.494,5.494,0,0,0-2.383-2.733,6.139,6.139,0,0,0-3.457-.7,5.369,5.369,0,0,0-4.608,2.71,5.962,5.962,0,0,0-.715,3.6.885.885,0,0,0,.973.831q3.123.007,6.245-.006a.412.412,0,0,0,.285-.176c.2-.3.358-.636.562-.936A7.5,7.5,0,0,1,111.534,343.284Zm3.729-1.572a4.125,4.125,0,1,0-4.194-4.132A4.178,4.178,0,0,0,115.262,341.712Zm9.093-3.437a3.574,3.574,0,1,0-3.586-3.647A3.625,3.625,0,0,0,124.355,338.276Zm-18.2,0a3.572,3.572,0,1,0-3.623-3.535A3.588,3.588,0,0,0,106.151,338.273Z" transform="translate(0 0)"/><path class="b" d="M122.065,362.023h-5.474a1.114,1.114,0,0,1-1.243-1.239,7.544,7.544,0,0,1,.393-3.086,5.967,5.967,0,0,1,5.509-3.933,8.685,8.685,0,0,1,3.423.321,6.17,6.17,0,0,1,4.123,5.6c.012.4.011.808,0,1.213a1.074,1.074,0,0,1-1.143,1.123C125.793,362.025,123.929,362.023,122.065,362.023Z" transform="translate(-6.783 -10.225)"/><path class="b" d="M134.344,350.549a5.235,5.235,0,0,1,1.591-2.245,5.427,5.427,0,0,1,3.429-1.26,6.219,6.219,0,0,1,3.111.54,5.343,5.343,0,0,1,3.073,4.828c.011.266.005.533,0,.8a.916.916,0,0,1-.99.974c-1.134.007-2.269,0-3.4,0-1,0-1.993,0-2.989,0a.327.327,0,0,1-.354-.185,7.564,7.564,0,0,0-3.337-3.366A1.432,1.432,0,0,1,134.344,350.549Z" transform="translate(-15.379 -7.197)"/><path class="b" d="M111.534,350.48a7.5,7.5,0,0,0-3.1,2.585c-.2.3-.362.632-.562.936a.412.412,0,0,1-.285.176q-3.122.016-6.245.006a.885.885,0,0,1-.973-.831,5.962,5.962,0,0,1,.715-3.6,5.369,5.369,0,0,1,4.608-2.71,6.139,6.139,0,0,1,3.457.7A5.494,5.494,0,0,1,111.534,350.48Z" transform="translate(0 -7.196)"/><path class="b" d="M124.117,343.64a4.185,4.185,0,0,1-4.194-4.132,4.2,4.2,0,1,1,4.194,4.132Z" transform="translate(-8.855 -1.928)"/><path class="b" d="M141.224,338.276a3.574,3.574,0,1,1,.13-7.146,3.574,3.574,0,1,1-.13,7.146Z" transform="translate(-16.869 0)"/><path class="b" d="M107.95,338.274a3.572,3.572,0,1,1,3.6-3.615A3.593,3.593,0,0,1,107.95,338.274Z" transform="translate(-1.799 -0.001)"/></g></g></svg>