<svg xmlns="http://www.w3.org/2000/svg" width="47" height="47" viewBox="0 0 47 47"><defs><style>.a{fill:#8965dc;}.b{fill:#fff;}</style></defs><g transform="translate(-1161 -196)"><circle class="a" cx="23.5" cy="23.5" r="23.5" transform="translate(1161 196)"/><g transform="translate(1115.256 13.856)"><path class="b" d="M75.54,201.476l13.369,9.759-13.049,9.75-.279-.109c0-.936.01-1.872,0-2.808-.024-1.828.221-1.654-1.64-1.628A14.508,14.508,0,0,0,61.7,223.126c-.666.958-1.208,2-1.9,3.156a12.035,12.035,0,0,1,.334-4.873c1.88-7.585,6.68-12.491,13.978-15.062,1.681-.592,1.4-.325,1.425-1.972C75.551,203.492,75.54,202.609,75.54,201.476Z" transform="translate(-5.012 -10.109)"/></g></g></svg>