<svg xmlns="http://www.w3.org/2000/svg" width="47" height="47" viewBox="0 0 47 47"><defs><style>.a{fill:#83d3a9;}.b{fill:#fff;}</style></defs><g transform="translate(-1713 -196)"><circle class="a" cx="23.5" cy="23.5" r="23.5" transform="translate(1713 196)"/><g transform="translate(1654.058 -78.904)"><path class="b" d="M88.606,323.213v3.725c0,2.99-2.118,5.975-4.71,5.975H81.224c-2.591,0-4.674-2.984-4.674-5.975v-3.725H70.942v5.7c0,5.542,5.988,10.035,10.282,10.035H83.6c4.295,0,10.613-4.493,10.613-10.035v-5.7Z" transform="translate(0 -26.78)"/><rect class="b" width="5.608" height="7.599" transform="translate(70.942 287.311)"/><rect class="b" width="5.608" height="7.599" transform="translate(88.606 287.311)"/><path class="b" d="M96.576,278.9l-4.846,5.143,2.967.989-2.374,4.55,6.231-6.033-3.412-.89Z" transform="translate(-12.564 5)"/></g></g></svg>